<mxfile host="app.diagrams.net" agent="Mozilla/5.0 (Windows NT 10.0; Win64; x64) AppleWebKit/537.36 (KHTML, like Gecko) Chrome/139.0.0.0 Safari/537.36 Edg/139.0.0.0" version="28.1.1">
  <diagram name="第 1 页" id="ReB7LvHNfefJyEh-j72S">
    <mxGraphModel dx="776" dy="1138" grid="1" gridSize="10" guides="1" tooltips="1" connect="1" arrows="1" fold="1" page="1" pageScale="1" pageWidth="827" pageHeight="1169" math="0" shadow="0">
      <root>
        <mxCell id="0" />
        <mxCell id="1" parent="0" />
        <mxCell id="6amz_h22maejP_TzgY1N-1" style="edgeStyle=orthogonalEdgeStyle;rounded=0;orthogonalLoop=1;jettySize=auto;html=1;entryX=0.5;entryY=0;entryDx=0;entryDy=0;" edge="1" parent="1" source="6amz_h22maejP_TzgY1N-4" target="6amz_h22maejP_TzgY1N-7">
          <mxGeometry relative="1" as="geometry">
            <Array as="points">
              <mxPoint x="340" y="140" />
              <mxPoint x="180" y="140" />
            </Array>
          </mxGeometry>
        </mxCell>
        <mxCell id="6amz_h22maejP_TzgY1N-2" style="edgeStyle=orthogonalEdgeStyle;rounded=0;orthogonalLoop=1;jettySize=auto;html=1;entryX=0.5;entryY=0;entryDx=0;entryDy=0;" edge="1" parent="1" source="6amz_h22maejP_TzgY1N-4" target="6amz_h22maejP_TzgY1N-10">
          <mxGeometry relative="1" as="geometry" />
        </mxCell>
        <mxCell id="6amz_h22maejP_TzgY1N-3" style="edgeStyle=orthogonalEdgeStyle;rounded=0;orthogonalLoop=1;jettySize=auto;html=1;entryX=0.5;entryY=0;entryDx=0;entryDy=0;" edge="1" parent="1" source="6amz_h22maejP_TzgY1N-4" target="6amz_h22maejP_TzgY1N-13">
          <mxGeometry relative="1" as="geometry" />
        </mxCell>
        <mxCell id="6amz_h22maejP_TzgY1N-4" value="兵力布势模块" style="rounded=0;whiteSpace=wrap;html=1;fontSize=16;" vertex="1" parent="1">
          <mxGeometry x="200" y="80" width="280" height="40" as="geometry" />
        </mxCell>
        <mxCell id="6amz_h22maejP_TzgY1N-5" style="edgeStyle=orthogonalEdgeStyle;rounded=0;orthogonalLoop=1;jettySize=auto;html=1;entryX=0.5;entryY=0;entryDx=0;entryDy=0;" edge="1" parent="1" source="6amz_h22maejP_TzgY1N-7" target="6amz_h22maejP_TzgY1N-14">
          <mxGeometry relative="1" as="geometry" />
        </mxCell>
        <mxCell id="6amz_h22maejP_TzgY1N-6" style="edgeStyle=orthogonalEdgeStyle;rounded=0;orthogonalLoop=1;jettySize=auto;html=1;entryX=0.5;entryY=0;entryDx=0;entryDy=0;" edge="1" parent="1" source="6amz_h22maejP_TzgY1N-7" target="6amz_h22maejP_TzgY1N-15">
          <mxGeometry relative="1" as="geometry" />
        </mxCell>
        <mxCell id="6amz_h22maejP_TzgY1N-7" value="数据接口模块" style="rounded=0;whiteSpace=wrap;html=1;textDirection=vertical-lr;fontSize=16;" vertex="1" parent="1">
          <mxGeometry x="160" y="160" width="40" height="160" as="geometry" />
        </mxCell>
        <mxCell id="6amz_h22maejP_TzgY1N-8" style="edgeStyle=orthogonalEdgeStyle;rounded=0;orthogonalLoop=1;jettySize=auto;html=1;entryX=0.5;entryY=0;entryDx=0;entryDy=0;" edge="1" parent="1" source="6amz_h22maejP_TzgY1N-10" target="6amz_h22maejP_TzgY1N-16">
          <mxGeometry relative="1" as="geometry" />
        </mxCell>
        <mxCell id="6amz_h22maejP_TzgY1N-9" style="edgeStyle=orthogonalEdgeStyle;rounded=0;orthogonalLoop=1;jettySize=auto;html=1;entryX=0.5;entryY=0;entryDx=0;entryDy=0;" edge="1" parent="1" source="6amz_h22maejP_TzgY1N-10" target="6amz_h22maejP_TzgY1N-17">
          <mxGeometry relative="1" as="geometry" />
        </mxCell>
        <mxCell id="6amz_h22maejP_TzgY1N-10" value="智能布势模块" style="rounded=0;whiteSpace=wrap;html=1;textDirection=vertical-lr;fontSize=16;" vertex="1" parent="1">
          <mxGeometry x="320" y="160" width="40" height="160" as="geometry" />
        </mxCell>
        <mxCell id="6amz_h22maejP_TzgY1N-11" style="edgeStyle=orthogonalEdgeStyle;rounded=0;orthogonalLoop=1;jettySize=auto;html=1;entryX=0.5;entryY=0;entryDx=0;entryDy=0;" edge="1" parent="1" source="6amz_h22maejP_TzgY1N-13" target="6amz_h22maejP_TzgY1N-18">
          <mxGeometry relative="1" as="geometry" />
        </mxCell>
        <mxCell id="6amz_h22maejP_TzgY1N-12" style="edgeStyle=orthogonalEdgeStyle;rounded=0;orthogonalLoop=1;jettySize=auto;html=1;entryX=0.5;entryY=0;entryDx=0;entryDy=0;" edge="1" parent="1" source="6amz_h22maejP_TzgY1N-13" target="6amz_h22maejP_TzgY1N-19">
          <mxGeometry relative="1" as="geometry" />
        </mxCell>
        <mxCell id="6amz_h22maejP_TzgY1N-13" value="仿真集成模块" style="rounded=0;whiteSpace=wrap;html=1;textDirection=vertical-lr;fontSize=16;" vertex="1" parent="1">
          <mxGeometry x="480" y="160" width="40" height="160" as="geometry" />
        </mxCell>
        <mxCell id="6amz_h22maejP_TzgY1N-14" value="标准化输入" style="rounded=0;whiteSpace=wrap;html=1;textDirection=vertical-lr;fontSize=16;" vertex="1" parent="1">
          <mxGeometry x="120" y="360" width="40" height="160" as="geometry" />
        </mxCell>
        <mxCell id="6amz_h22maejP_TzgY1N-15" value="数据校验" style="rounded=0;whiteSpace=wrap;html=1;textDirection=vertical-lr;fontSize=16;" vertex="1" parent="1">
          <mxGeometry x="200" y="360" width="40" height="160" as="geometry" />
        </mxCell>
        <mxCell id="6amz_h22maejP_TzgY1N-16" value="布施智能体" style="rounded=0;whiteSpace=wrap;html=1;textDirection=vertical-lr;fontSize=16;" vertex="1" parent="1">
          <mxGeometry x="280" y="360" width="40" height="160" as="geometry" />
        </mxCell>
        <mxCell id="6amz_h22maejP_TzgY1N-17" value="方案评估" style="rounded=0;whiteSpace=wrap;html=1;textDirection=vertical-lr;fontSize=16;" vertex="1" parent="1">
          <mxGeometry x="360" y="360" width="40" height="160" as="geometry" />
        </mxCell>
        <mxCell id="6amz_h22maejP_TzgY1N-18" value="想定文件生成" style="rounded=0;whiteSpace=wrap;html=1;textDirection=vertical-lr;fontSize=16;" vertex="1" parent="1">
          <mxGeometry x="440" y="360" width="40" height="160" as="geometry" />
        </mxCell>
        <mxCell id="6amz_h22maejP_TzgY1N-19" value="一键导出部署" style="rounded=0;whiteSpace=wrap;html=1;textDirection=vertical-lr;fontSize=16;" vertex="1" parent="1">
          <mxGeometry x="520" y="360" width="40" height="160" as="geometry" />
        </mxCell>
      </root>
    </mxGraphModel>
  </diagram>
</mxfile>
